# xmcd
#
# Track frame offsets:
#	150
#	15628
#	35312
#	52963
#	70455
#	91621
#	120832
#
# Disc length: 1854 seconds
#
# Revision: 0
# Processed by: cddbd v1.5PL3 Copyright (c) Steve Scherf et al.
# Submitted via: dBpowerAMP V4.0
#
DISCID=48073c07
DTITLE=Haymaker - Haymaker
DYEAR=1900
DGENRE=Country
TTITLE0=Second Floor
TTITLE1=Foggy Rain
TTITLE2=Broken Mirror
TTITLE3=Downtown
TTITLE4=Telephone
TTITLE5=Heart Don't Break
TTITLE6=DATA
EXTD=
EXTT0=
EXTT1=
EXTT2=
EXTT3=
EXTT4=
EXTT5=
EXTT6=
PLAYORDER=
